<svg xmlns="http://www.w3.org/2000/svg" xmlns:xlink="http://www.w3.org/1999/xlink" version="1.1" style="enable-background:new 0 0 512.001 512.001;" xml:space="preserve" width="512.001" height="512.001"><rect id="backgroundrect" width="100%" height="100%" x="0" y="0" fill="none" stroke="none"/>
















<g class="currentLayer" style=""><title>Layer 1</title><g id="svg_1" class="selected" stroke="#ffffff" stroke-opacity="1" fill="#0882ff" fill-opacity="1">
	<g id="svg_2" stroke="#ffffff" stroke-opacity="1" fill="#0882ff" fill-opacity="1">
		<path d="M448.916,118.259h-162.05c-6.578,0-13.003-2.701-17.44-7.292l-50.563-53.264c-12.154-12.115-28.783-18.443-45.625-18.346    H63.084C28.301,39.356,0,67.657,0,102.439v307.123c0,34.783,28.301,63.084,63.084,63.084h386.064h0.058    c34.764-0.154,62.949-28.59,62.794-63.277V181.342C512,146.559,483.699,118.259,448.916,118.259z M473.417,409.447    c0.058,13.504-10.88,24.558-24.307,24.616H63.084c-13.504,0-24.5-10.996-24.5-24.5V102.439c0-13.504,10.996-24.5,24.5-24.52    H173.74c0.212,0,0.424,0,0.637,0c6.443,0,12.694,2.566,16.899,6.733l50.293,53.013c11.806,12.192,28.32,19.176,45.297,19.176    h162.05c13.504,0,24.5,10.996,24.5,24.5V409.447z" id="svg_3" stroke="#ffffff" stroke-opacity="1" fill="#0882ff" fill-opacity="1"/>
	</g>
</g><g id="svg_4">
</g><g id="svg_5">
</g><g id="svg_6">
</g><g id="svg_7">
</g><g id="svg_8">
</g><g id="svg_9">
</g><g id="svg_10">
</g><g id="svg_11">
</g><g id="svg_12">
</g><g id="svg_13">
</g><g id="svg_14">
</g><g id="svg_15">
</g><g id="svg_16">
</g><g id="svg_17">
</g><g id="svg_18">
</g></g></svg>