<svg width="70" height="101" viewBox="0 0 70 101" fill="none" xmlns="http://www.w3.org/2000/svg">
<g clip-path="url(#clip0)">
<path d="M17.3754 100.535C26.9633 100.535 34.7448 93.0283 34.7448 83.7791V67.0233H17.3754C7.78745 67.0233 0.00595093 74.5299 0.00595093 83.7791C0.00595093 93.0283 7.78745 100.535 17.3754 100.535Z" fill="#0ACF83"/>
<path d="M0.00595093 50.2673C0.00595093 41.0181 7.78745 33.5115 17.3754 33.5115H34.7448V67.0231H17.3754C7.78745 67.0231 0.00595093 59.5165 0.00595093 50.2673Z" fill="#A259FF"/>
<path d="M0.00390625 16.7558C0.00390625 7.50659 7.7854 0 17.3733 0H34.7427V33.5116H17.3733C7.7854 33.5116 0.00390625 26.005 0.00390625 16.7558Z" fill="#F24E1E"/>
<path d="M34.7458 0H52.1152C61.7031 0 69.4846 7.50659 69.4846 16.7558C69.4846 26.005 61.7031 33.5116 52.1152 33.5116H34.7458V0Z" fill="#FF7262"/>
<path d="M69.4846 50.2673C69.4846 59.5165 61.7031 67.0231 52.1152 67.0231C42.5273 67.0231 34.7458 59.5165 34.7458 50.2673C34.7458 41.0181 42.5273 33.5115 52.1152 33.5115C61.7031 33.5115 69.4846 41.0181 69.4846 50.2673Z" fill="#1ABCFE"/>
</g>
<defs>
<clipPath id="clip0">
<rect width="69.4915" height="100.535" fill="white"/>
</clipPath>
</defs>
</svg>
