<svg width="97" height="112" viewBox="0 0 97 112" fill="none" xmlns="http://www.w3.org/2000/svg">
<path d="M0 0H96.242V111.243H0V0Z" fill="#F7DF1E"/>
<path d="M25.3057 92.9621L32.6709 87.8102C34.0917 90.7221 35.3843 93.1858 38.4846 93.1858C41.4565 93.1858 43.3302 91.8421 43.3302 86.6155V51.0708H52.3745V86.7633C52.3745 97.5909 46.8835 102.519 38.8724 102.519C31.6372 102.519 27.4374 98.188 25.3056 92.9612" fill="black"/>
<path d="M57.2868 91.8423L64.651 86.9139C66.5896 90.5733 69.1091 93.2613 73.5665 93.2613C77.314 93.2613 79.7037 91.0956 79.7037 88.1086C79.7037 84.5243 77.2489 83.2548 73.1142 81.1646L70.8537 80.0437C64.3283 76.8334 59.9997 72.8011 59.9997 64.2882C59.9997 56.4476 65.1679 50.4735 73.2437 50.4735C78.9935 50.4735 83.1281 52.7886 86.0995 58.8372L79.0576 64.064C77.5071 60.8533 75.8279 59.5841 73.2439 59.5841C70.5951 59.5841 68.9153 61.5255 68.9153 64.064C68.9153 67.2003 70.5951 68.4701 74.4709 70.4117L76.7318 71.5317C84.4197 75.3403 88.7483 79.2228 88.7483 87.9592C88.7483 97.3686 82.3526 102.521 73.7605 102.521C65.3621 102.521 59.9353 97.8911 57.2869 91.8423" fill="black"/>
</svg>
